<svg width="200" height="200" viewBox="0 0 200 200" xmlns="http://www.w3.org/2000/svg">
  <!-- Professional gradient background -->
  <defs>
    <linearGradient id="bgGrad1" x1="0%" y1="0%" x2="100%" y2="100%">
      <stop offset="0%" style="stop-color:#e0f2fe;stop-opacity:1" />
      <stop offset="100%" style="stop-color:#b3e5fc;stop-opacity:1" />
    </linearGradient>
  </defs>
  
  <!-- Background circle -->
  <circle cx="100" cy="100" r="100" fill="url(#bgGrad1)"/>
  
  <!-- Professional business attire -->
  <ellipse cx="100" cy="160" rx="60" ry="40" fill="#1e40af"/>
  
  <!-- Face -->
  <circle cx="100" cy="75" r="30" fill="#fbbf24"/>
  
  <!-- Hair (professional style) -->
  <path d="M 70 60 Q 100 45 130 60 Q 125 75 100 75 Q 75 75 70 60" fill="#92400e"/>
  
  <!-- Eyes -->
  <circle cx="92" cy="72" r="2" fill="#374151"/>
  <circle cx="108" cy="72" r="2" fill="#374151"/>
  
  <!-- Smile -->
  <path d="M 90 82 Q 100 88 110 82" stroke="#374151" stroke-width="1.5" fill="none"/>
  
  <!-- Professional blazer collar -->
  <path d="M 70 140 L 85 130 L 100 135 L 115 130 L 130 140 L 130 200 L 70 200 Z" fill="#1e40af"/>
  <path d="M 85 130 L 100 135 L 115 130" stroke="#ffffff" stroke-width="2" fill="none"/>
</svg>
